<svg xmlns="http://www.w3.org/2000/svg" width="620" height="318" viewBox="0 0 620 318" font-family="ui-monospace,SFMono-Regular,Menlo,Consolas,monospace" role="img" aria-label="About garv503">
<rect width="620" height="318" rx="10" fill="#0d1117"/>
<rect x="0.5" y="0.5" width="619" height="317" rx="10" fill="none" stroke="#30363d"/>
<circle cx="30" cy="26" r="6" fill="#ff5f57"/>
<circle cx="48" cy="26" r="6" fill="#febc2e"/>
<circle cx="66" cy="26" r="6" fill="#28c840"/>
<text x="92" y="31" font-size="13" fill="#7d8590">garv503@github ~ neofetch</text>
<text x="30" y="66" font-size="15" fill="#39d353">garv503@github</text>
<line x1="30" y1="76" x2="590" y2="76" stroke="#30363d"></line>
<text x="30" y="92" font-size="13" fill="#69f0a0">Name</text>
<text x="97" y="92" font-size="13" fill="#c9d1d9">Garv Bhargava</text>
<text x="30" y="122" font-size="13" fill="#69f0a0">Now</text>
<text x="97" y="122" font-size="13" fill="#c9d1d9">SpeakQL</text>
<text x="30" y="152" font-size="13" fill="#69f0a0">Prev</text>
<text x="97" y="152" font-size="13" fill="#c9d1d9">Foresight / Inkwell / Shivam Garments</text>
<text x="30" y="182" font-size="13" fill="#69f0a0">Stack</text>
<text x="97" y="182" font-size="13" fill="#c9d1d9">Python / SQL / Flask / React / Docker</text>
<text x="30" y="212" font-size="13" fill="#69f0a0">Focus</text>
<text x="97" y="212" font-size="13" fill="#c9d1d9">Backend and data-heavy interfaces</text>
<text x="30" y="242" font-size="13" fill="#69f0a0">Habit</text>
<text x="97" y="242" font-size="13" fill="#c9d1d9">Ships coursework like production</text>
<rect x="30" y="292" width="15" height="10" rx="2" fill="#161b22"></rect>
<rect x="50" y="292" width="15" height="10" rx="2" fill="#0e4429"></rect>
<rect x="70" y="292" width="15" height="10" rx="2" fill="#006d32"></rect>
<rect x="90" y="292" width="15" height="10" rx="2" fill="#26a641"></rect>
<rect x="110" y="292" width="15" height="10" rx="2" fill="#39d353"></rect>
<rect x="130" y="292" width="15" height="10" rx="2" fill="#69f0a0"></rect>
</svg>
